<?xml version="1.0" encoding="UTF-8"?>
<svg width="74px" height="74px" viewBox="0 0 74 74" version="1.1" xmlns="http://www.w3.org/2000/svg" xmlns:xlink="http://www.w3.org/1999/xlink">
    <!-- Generator: Sketch 52.3 (67297) - http://www.bohemiancoding.com/sketch -->
    <title>Untitled</title>
    <desc>Created with Sketch.</desc>
    <g id="Page-1" stroke="none" stroke-width="1" fill="none" fill-rule="evenodd">
        <g id="test_image_asset_variant_4" transform="translate(1.000000, 1.000000)">
            <path d="M35.4107143,3 L36.5892857,3 C54.4894286,3 69,17.5105714 69,35.4107143 L69,36.5892857 C69,54.4894286 54.4894286,69 36.5892857,69 L35.4107143,69 C17.5105714,69 3,54.4894286 3,36.5892857 L3,35.4107143 C3,17.5105714 17.5105714,3 35.4107143,3 Z" id="Stroke-1" fill="#F2FD0B"></path>
            <path d="M34.0366579,19.4487774 C36.6091778,20.1340338 36.1686378,22.798714 33.0632077,23.5869586 C32.0686418,23.8393111 30.8134637,24.328307 29.4583407,24.9525221 C27.9200377,25.6611142 26.6891987,26.8067376 25.99387,28.2177677 C25.3535826,29.5182532 25.357467,30.6087609 26.1694982,31.4648614 C27.4155528,32.7793546 30.5884285,33.4271749 31.7015017,32.1091528 C33.386693,30.1132778 35.70566,30.1735432 36.1787283,32.1875811 C36.6464718,34.1789488 34.9395663,36.9653791 31.2462674,39.5626605 C30.307271,40.2230792 29.5629442,40.9298989 28.9712253,41.6951043 C28.0444884,42.8935519 27.7735059,43.5514115 26.9912269,46.0082416 C26.2278583,48.4056814 25.4378325,49.3986921 23.3305019,49.833441 C20.7583047,50.3631936 18.050379,49.3925816 16.2398241,47.3610701 C15.2227528,46.2219014 14.5572306,45.2117478 14.3715718,44.3591298 C13.4004027,39.9042032 13.0142636,33.7100734 13.8844755,31.617159 C14.8363379,29.323955 19.286856,23.8455427 20.9222464,22.6312719 C21.3073812,22.3450066 21.7709917,22.1336921 22.2953108,21.9846351 C23.0262748,21.7768317 23.7718833,21.7090402 24.3986541,21.7185805 C26.638508,20.2061235 31.7519257,18.8398878 34.0366579,19.4487774 Z" id="Stroke-6" fill="#FFFFFF"></path>
            <path d="M34.0366579,19.4487774 C36.6091778,20.1340338 36.1686378,22.798714 33.0632077,23.5869586 C32.0686418,23.8393111 30.8134637,24.328307 29.4583407,24.9525221 C27.9200377,25.6611142 26.6891987,26.8067376 25.99387,28.2177677 C25.3535826,29.5182532 25.357467,30.6087609 26.1694982,31.4648614 C27.4155528,32.7793546 30.5884285,33.4271749 31.7015017,32.1091528 C33.386693,30.1132778 35.70566,30.1735432 36.1787283,32.1875811 C36.6464718,34.1789488 34.9395663,36.9653791 31.2462674,39.5626605 C30.307271,40.2230792 29.5629442,40.9298989 28.9712253,41.6951043 C28.0444884,42.8935519 27.7735059,43.5514115 26.9912269,46.0082416 C26.2278583,48.4056814 25.4378325,49.3986921 23.3305019,49.833441 C20.7583047,50.3631936 18.050379,49.3925816 16.2398241,47.3610701 C15.2227528,46.2219014 14.5572306,45.2117478 14.3715718,44.3591298 C13.4004027,39.9042032 13.0142636,33.7100734 13.8844755,31.617159 C14.8363379,29.323955 19.286856,23.8455427 20.9222464,22.6312719 C21.3073812,22.3450066 21.7709917,22.1336921 22.2953108,21.9846351 C23.0262748,21.7768317 23.7718833,21.7090402 24.3986541,21.7185805 C26.638508,20.2061235 31.7519257,18.8398878 34.0366579,19.4487774 Z M22.5687622,22.9465209 C22.1529561,23.0647291 21.7973076,23.2268343 21.5185879,23.4340027 C20.023045,24.5444374 15.6879293,29.8807938 14.8079558,32.0008047 C14.0433132,33.8398185 14.4203531,39.8879845 15.3486499,44.1462487 C15.4870655,44.7819075 16.0766636,45.6768208 16.9860694,46.6953992 C18.5653953,48.4674628 20.9155194,49.3098265 23.128618,48.8540315 C24.8050641,48.5081754 25.3730898,47.7942044 26.0383639,45.7048406 C26.8570782,43.1335817 27.1560771,42.4077071 28.1801523,41.0833825 C28.8337514,40.2381542 29.6510071,39.4620805 30.6710043,38.7446921 C34.067417,36.3561934 35.5588051,33.9215834 35.2052225,32.4162435 C34.952715,31.3412195 33.6864613,31.308312 32.4655408,32.7543227 C30.8837116,34.6274125 27.0469116,33.8440358 25.4438574,32.1529351 C24.2959096,30.9426877 24.290463,29.4136273 25.09679,27.7758994 C25.8973244,26.1513755 27.3001707,24.8456536 29.0399607,24.04425 C30.4459926,23.3965846 31.7506834,22.8882993 32.8172256,22.6176842 C35.0237139,22.057616 35.23132,20.8018761 33.7792001,20.4150669 C31.7699093,19.8795835 26.7809861,21.237447 24.8438187,22.6269291 C24.8416629,22.6285042 24.8394942,22.6300623 24.8373128,22.6316032 C23.0197561,23.9387142 21.6046786,25.596218 20.3314612,28.0329547 C20.203579,28.277701 19.9015039,28.3724381 19.6567576,28.2445559 C19.4120113,28.1166737 19.3172742,27.8145986 19.4451564,27.5698523 C20.4812576,25.5869185 21.6203395,24.0763317 22.9793864,22.8470073 C22.8419278,22.8749274 22.7045254,22.9079252 22.5687622,22.9465209 Z" id="Stroke-6" fill="#717AE4" fill-rule="nonzero"></path>
            <path d="M50.7549348,21.9846351 C51.279254,22.1336921 51.7428644,22.3450066 52.1277949,22.6311201 C53.7633896,23.8455427 58.2139078,29.323955 59.165654,31.6168795 C60.035982,33.7100734 59.6498429,39.9042032 58.678699,44.3590144 C58.493015,45.2117478 57.8274928,46.2219014 56.810715,47.3607411 C54.9998667,49.3925816 52.2919409,50.3631936 49.7195794,49.8334071 C47.6124131,49.3986921 46.8223873,48.4056814 46.0590187,46.0082416 C45.2767397,43.5514115 45.0057572,42.8935519 44.0790203,41.6951043 C43.4873014,40.9298989 42.7429746,40.2230792 41.8040008,39.5626764 C38.1106793,36.9653791 36.4037739,34.1789488 36.8715173,32.1875811 C37.3445856,30.1735432 39.6635526,30.1132778 41.3487128,32.1091159 C42.4618171,33.4271749 45.6346928,32.7793546 46.8808539,31.4647491 C47.6927786,30.6087609 47.696663,29.5182532 47.0564532,28.2179251 C46.3610469,26.8067376 45.1302079,25.6611142 43.5919045,24.9525219 C42.2367819,24.328307 40.9816038,23.8393111 39.986994,23.5869474 C36.8816078,22.798714 36.4410678,20.1340338 39.0135299,19.4487928 C41.298295,18.8398945 46.4116313,20.2060951 48.6515874,21.7185805 C49.2783591,21.70904 50.0239692,21.7768313 50.7549348,21.9846351 Z" id="Combined-Shape" fill="#FFFFFF"></path>
            <path d="M53.6050892,27.5698523 C53.7329714,27.8145986 53.6382344,28.1166737 53.3934881,28.2445559 C53.1487417,28.3724381 52.8466667,28.277701 52.7187845,28.0329547 C51.4455515,25.5961882 50.0304549,23.9386737 48.212936,22.6316055 C48.2107559,22.6300654 48.2085884,22.6285083 48.2064338,22.6269342 C46.2691512,21.2374175 41.2803145,19.8795893 39.2709877,20.4150823 C37.8189256,20.8018761 38.0265317,22.057616 40.2329761,22.617673 C41.2995622,22.8882993 42.604253,23.3965846 44.0102845,24.0442498 C45.750075,24.8456536 47.1529212,26.1513755 47.9535331,27.7760568 C48.7597826,29.4136273 48.754336,30.9426877 47.6064947,32.1528228 C46.003334,33.8440358 42.1665341,34.6274125 40.5846736,32.7542858 C39.3637843,31.308312 38.0975306,31.3412195 37.8450231,32.4162435 C37.4914405,33.9215834 38.9828286,36.3561934 42.3792639,38.7447079 C43.3992385,39.4620805 44.2164942,40.2381542 44.8700933,41.0833825 C45.8941685,42.4077071 46.1931674,43.1335817 47.0118817,45.7048406 C47.6771558,47.7942044 48.2451815,48.5081754 49.9214633,48.8539976 C52.1347262,49.3098265 54.4848503,48.4674628 56.0644697,46.6950702 C56.973582,45.6768208 57.5631801,44.7819075 57.7016209,44.1461334 C58.6298926,39.8879845 59.0069324,33.8398185 58.2421737,32.0005252 C57.3623163,29.8807938 53.0272006,24.5444374 51.5314534,23.4338509 C51.252938,23.2268343 50.8972895,23.0647291 50.4814834,22.9465209 C50.345723,22.907926 50.2083235,22.8749288 50.0708677,22.847009 C51.429893,24.0763143 52.568982,25.5869071 53.6050892,27.5698523 Z M50.7549348,21.9846351 C51.279254,22.1336921 51.7428644,22.3450066 52.1277949,22.6311201 C53.7633896,23.8455427 58.2139078,29.323955 59.165654,31.6168795 C60.035982,33.7100734 59.6498429,39.9042032 58.678699,44.3590144 C58.493015,45.2117478 57.8274928,46.2219014 56.810715,47.3607411 C54.9998667,49.3925816 52.2919409,50.3631936 49.7195794,49.8334071 C47.6124131,49.3986921 46.8223873,48.4056814 46.0590187,46.0082416 C45.2767397,43.5514115 45.0057572,42.8935519 44.0790203,41.6951043 C43.4873014,40.9298989 42.7429746,40.2230792 41.8040008,39.5626764 C38.1106793,36.9653791 36.4037739,34.1789488 36.8715173,32.1875811 C37.3445856,30.1735432 39.6635526,30.1132778 41.3487128,32.1091159 C42.4618171,33.4271749 45.6346928,32.7793546 46.8808539,31.4647491 C47.6927786,30.6087609 47.696663,29.5182532 47.0564532,28.2179251 C46.3610469,26.8067376 45.1302079,25.6611142 43.5919045,24.9525219 C42.2367819,24.328307 40.9816038,23.8393111 39.986994,23.5869474 C36.8816078,22.798714 36.4410678,20.1340338 39.0135299,19.4487928 C41.298295,18.8398945 46.4116313,20.2060951 48.6515874,21.7185805 C49.2783591,21.70904 50.0239692,21.7768313 50.7549348,21.9846351 Z" id="Stroke-8" fill="#717AE4" fill-rule="nonzero"></path>
            <circle id="Oval" stroke="#BBC0FF" stroke-width="1.16129032" cx="36" cy="36" r="36"></circle>
        </g>
    </g>
</svg>